Coordinates
version=1
nRows=13
nColumns=36
inDegrees=yes

Units are S.I. units (second, meters, Newtons, ...)
If the header above contains a line with 'inDegrees', this indicates whether rotational values are in degrees (yes) or radians (no).

endheader
time	pelvis_tilt	pelvis_list	pelvis_rotation	pelvis_tx	pelvis_ty	pelvis_tz	hip_flexion_r	hip_adduction_r	hip_rotation_r	knee_angle_r	knee_angle_r_beta	ankle_angle_r	subtalar_angle_r	mtp_angle_r	hip_flexion_l	hip_adduction_l	hip_rotation_l	knee_angle_l	knee_angle_l_beta	ankle_angle_l	subtalar_angle_l	mtp_angle_l	lumbar_extension	lumbar_bending	lumbar_rotation	arm_flex_r	arm_add_r	arm_rot_r	elbow_flex_r	pro_sup_r	arm_flex_l	arm_add_l	arm_rot_l	elbow_flex_l	pro_sup_l
      1.39583330	     -4.85993450	     -0.11231993	      0.46399208	     -0.44279027	      1.33683961	     -0.05144930	     13.93985826	     -6.79918329	     -3.91655809	     57.99498625	      1.01220346	     -3.26209729	    -20.93145226	     -7.49999987	     18.76311348	     -8.76812985	     -8.67644431	     54.22201788	      0.94635274	     -9.34499608	    -33.56549510	     -7.49999987	    -16.26194311	      1.91905359	      1.82360846	    -11.08569874	    -30.47652579	      4.63729236	     91.84304986	     85.02848945	      3.32670855	    -23.90941116	     14.65834513	     91.26809076	     77.33214040
      1.40000000	     -4.56624024	      0.05903277	      0.67010583	     -0.43690020	      1.33939159	     -0.05157306	     13.76342787	     -6.79425025	     -3.69699966	     57.15119942	      0.99747660	     -0.98176320	    -19.64942271	     -7.49999987	     18.71318695	     -8.43786919	     -8.52061263	     53.37785112	      0.93161925	     -8.01075088	    -33.36638366	     -7.49999987	    -16.98629742	      1.76498519	      1.92465747	    -12.99770453	    -29.99702867	      2.97574635	     91.15581201	     85.02612072	      2.12060463	    -24.04559820	     14.04963433	     90.90901101	     77.77474287
      1.40416670	     -4.35985283	      0.18676167	      0.74848974	     -0.43127090	      1.34334298	     -0.05086458	     13.55785302	     -6.85014624	     -3.39724837	     55.82794890	      0.97438152	     -0.74170630	    -19.88724552	     -7.49999987	     18.49861560	     -8.09188778	     -8.57952990	     52.39440214	      0.91445483	     -7.08341090	    -32.97207897	     -7.49999987	    -17.44722562	      1.64186517	      2.40721069	    -15.00323482	    -29.54220466	      1.19744602	     89.93824103	     89.21072425	      1.65867810	    -24.13760849	     14.13545976	     89.37816995	     81.81985783
      1.40833330	     -4.04551490	      0.22541210	      0.76428406	     -0.42604482	      1.34128012	     -0.04876187	     13.60962492	     -6.76300342	     -3.13555116	     55.29091198	      0.96500846	      0.24722768	    -20.32476906	     -7.49999987	     18.25586372	     -7.77814251	     -8.33805570	     51.55055230	      0.89972687	     -6.66938595	    -32.06140940	     -7.49999987	    -17.94538755	      1.49194625	      2.31282291	    -16.07696176	    -29.38791264	      1.05116326	     88.59208011	     87.02566727	      0.56301075	    -24.53711674	     13.74424264	     88.48334031	     80.15881419
      1.41250000	     -3.93925733	      0.38239107	      0.71360597	     -0.42150760	      1.33813729	     -0.04951039	     14.00397165	     -6.88041963	     -2.80172335	     54.79517049	      0.95635614	      0.84244560	    -20.86170959	     -7.49999987	     18.73074564	     -7.52714931	     -8.57691726	     51.20467682	      0.89369020	     -6.42594582	    -31.44414762	     -7.49999987	    -18.05915704	      1.29596021	      2.31006046	    -17.14499820	    -29.39546163	      1.23640115	     87.10587168	     84.51626387	     -0.40905989	    -25.03444491	     13.73837772	     87.37714555	     78.24571309
      1.41666670	     -3.68459081	      0.56051527	      0.81594318	     -0.41340810	      1.33541326	     -0.04988873	     14.02571481	     -7.18370468	     -2.74715921	     54.31827452	      0.94803273	      2.36148830	    -20.94523092	     -7.49999987	     18.93821639	     -7.21539907	     -8.54094803	     50.99870969	      0.89009540	     -5.63965783	    -30.36511376	     -7.49999987	    -18.28461907	      1.15023473	      2.13957792	    -18.52536110	    -29.10556355	      0.83345810	     85.93290970	     84.55228925	     -1.73615512	    -25.53601828	     13.50479439	     86.71272803	     78.28875536
      1.42083330	     -3.69291543	      0.78462583	      0.86633525	     -0.40547425	      1.32801121	     -0.05133805	     14.35000386	     -7.80696993	     -2.41633521	     53.87530282	      0.94030142	      3.41114274	    -20.63165946	     -7.49999987	     19.62137119	     -6.86573527	     -8.15862008	     51.09520654	      0.89177959	     -4.34779779	    -28.57678737	     -7.49999987	    -18.05719564	      1.06436550	      2.62110759	    -21.22265432	    -28.69964911	     -1.03232759	     85.61213132	     88.53201463	     -2.58808429	    -26.11581284	     13.89479014	     85.76725855	     81.37063407
      1.42500000	     -3.78554694	      0.85786510	      0.84515882	     -0.39755316	      1.32999463	     -0.05136058	     14.72673325	     -8.05331602	     -2.04730403	     52.92191238	      0.92366162	      4.22108930	    -20.40746479	     -7.49999987	     19.97887899	     -6.67868068	     -7.99421184	     50.42083926	      0.88000966	     -3.12160122	    -27.32338893	     -7.49999987	    -17.62981706	      1.05711437	      2.48775011	    -22.82669951	    -28.58504493	     -0.86924514	     84.26760067	     85.83383496	     -4.20953384	    -26.41428240	     13.83701988	     84.65830009	     79.27210585
      1.42916670	     -3.65662791	      0.84625060	      0.65473055	     -0.39144009	      1.33194076	     -0.04908706	     14.81067502	     -7.99954767	     -2.05125297	     51.61858592	      0.90091428	      4.71352002	    -20.11647983	     -7.49999987	     19.82150029	     -6.83054928	     -8.30954708	     49.14121314	      0.85767597	     -2.11553680	    -25.52118729	     -7.49999987	    -17.69357911	      1.10613416	      2.48533879	    -24.29278552	    -28.35622719	     -0.96034260	     83.09630091	     84.14436899	     -5.95182885	    -26.67756166	     13.47467329	     83.74781059	     77.90110596
      1.43333330	     -3.55143613	      0.86784336	      0.47446862	     -0.38273878	      1.32877956	     -0.04720064	     15.03866985	     -7.98766732	     -2.25293370	     50.54410187	      0.88216100	      4.64096677	    -20.63348530	     -7.49999987	     19.62700164	     -6.95848405	     -8.54661171	     47.89598025	      0.83594255	     -1.58931939	    -23.90989065	     -7.49999987	    -17.68826005	      0.98579226	      2.50107007	    -25.85224292	    -27.93743365	     -1.17029688	     81.73890337	     84.34275853	     -7.63813396	    -26.92510156	     13.02334308	     82.74658640	     78.00494103
      1.43750000	     -3.64688111	      0.76357288	      0.13563347	     -0.37941528	      1.32062652	     -0.04888489	     16.17354901	     -7.91526077	     -1.90062573	     50.40445860	      0.87972376	      5.28784170	    -20.67188500	     -7.49999987	     20.33941726	     -7.09014669	     -8.52408125	     47.57073246	      0.83026591	     -0.46555074	    -22.13041825	     -7.49999987	    -17.53179009	      1.12171032	      2.68356388	    -27.65663561	    -28.12817743	     -1.08005059	     80.97730575	     84.14198504	     -9.29221029	    -27.18259320	     12.80604786	     82.34866556	     77.84861688
      1.44166670	     -3.77136730	      0.72929680	      0.12228758	     -0.37240084	      1.31619691	     -0.05021792	     17.02412196	     -8.15679258	     -1.80886621	     49.93220345	      0.87148135	      5.45737707	    -20.83420446	     -7.49999987	     21.15282221	     -7.15639356	     -8.73614063	     47.43656157	      0.82792419	      0.56493471	    -20.57835777	     -7.49999987	    -17.18754213	      1.26232515	      2.63300385	    -29.41524165	    -28.25965606	     -1.07908890	     80.09254508	     84.10465967	    -10.86862009	    -27.43125215	     12.69029514	     81.78243799	     77.83046986
      1.44583330	     -3.79008585	      0.67183586	      0.16502775	     -0.36677883	      1.32279843	     -0.05114561	     17.34121273	     -8.21802681	     -1.90600121	     48.52302598	      0.84688657	      4.63004572	    -21.38889027	     -7.49999987	     21.34880119	     -7.03618844	     -8.95811719	     46.26376972	      0.80745511	      1.45343677	    -18.50882078	     -7.49999987	    -17.12162902	      1.43424451	      2.54087751	    -30.69161199	    -28.13791563	     -1.03713072	     78.41982343	     85.77463427	    -12.06137101	    -27.29618609	     12.51883366	     80.63685953	     78.99641236
